ply
format ascii 1.0
comment Generated by OCC
comment metajson {"description":"Isosurface","isovalue":0.0020000000949949026,"kind":"Unknown","separation":0.20000000298023224}
element vertex 24
property float x
property float y
property float z
element face 44
property list uint uint vertex_indices
end_header
0.0174724 0.0483716 -0.0844105 
-0.087477 0.0483716 -0.0844105 
-0.0996596 0.031614 -0.0844105 
-0.0996596 -0.031614 -0.0844105 
-0.087477 -0.0483716 -0.0844105 
0.0174724 -0.0483716 -0.0844105 
0.0368635 -0.0754352 -0.0445791 
0.0294848 -0.0951653 -0.0155409 
-0.0369399 -0.0951653 -0.0155409 
-0.0294848 -0.0951653 0.0155409 
0.0369399 -0.0951653 0.0155409 
0.087477 -0.0483716 0.0844105 
0.0996596 -0.031614 0.0844105 
0.0996596 0.031614 0.0844105 
0.087477 0.0483716 0.0844105 
0.0369399 0.0951653 0.0155409 
-0.0294848 0.0951653 0.0155409 
-0.0369399 0.0951653 -0.0155409 
0.0294848 0.0951653 -0.0155409 
0.0368635 0.0754352 -0.0445791 
-0.0368635 0.0754352 0.0445791 
-0.0174724 0.0483716 0.0844105 
-0.0174724 -0.0483716 0.0844105 
-0.0368635 -0.0754352 0.0445791 
3 15 18 17 
3 15 17 16 
3 13 19 18 
3 13 18 15 
3 13 15 14 
3 11 12 13 
3 11 13 14 
3 11 14 21 
3 11 21 22 
3 0 19 13 
3 0 13 12 
3 0 12 6 
3 0 6 5 
3 14 15 16 
3 14 16 20 
3 14 20 21 
3 0 1 17 
3 0 17 18 
3 0 18 19 
3 1 2 20 
3 1 20 16 
3 1 16 17 
3 2 3 23 
3 2 23 22 
3 2 22 21 
3 2 21 20 
3 7 10 9 
3 7 9 8 
3 3 4 8 
3 3 8 9 
3 3 9 23 
3 0 5 4 
3 0 4 3 
3 0 3 2 
3 0 2 1 
3 4 5 6 
3 4 6 7 
3 4 7 8 
3 9 10 11 
3 9 11 22 
3 9 22 23 
3 6 12 11 
3 6 11 10 
3 6 10 7 
